PathFileType	4	(X/Y/Z)	C:/Users/opensim2020/Desktop/walking_exp_matlab/subject06_walking15_straight_01.trc																																																																																																																																											
DataRate	CameraRate	NumFrames	NumMarkers	Units	OrigDataRate	OrigDataStartFrame	OrigNumFrames																																																																																																																																							
100	100	4	47	mm	100	950	232																																																																																																																																							
Frame#	Time	LFHD			RFHD			LBHD			RBHD			C7			T10			CLAV			STRN			RBAK			LSHO			LUPA			LELB			LFRM			LWRA			LWRB			LFIN			RSHO			RUPA			RELB			RFRM			RWRA			RWRB			RFIN			LASI			RASI			LPSI			RPSI			LTHI			LKNE			LTIB			LANK			LHEE			LTOE			RTHI			RKNE			RTIB			RANK			RHEE			RTOE			*39			*40			*41			*42			*43			*44			*45			*46		
		X1	Y1	Z1	X2	Y2	Z2	X3	Y3	Z3	X4	Y4	Z4	X5	Y5	Z5	X6	Y6	Z6	X7	Y7	Z7	X8	Y8	Z8	X9	Y9	Z9	X10	Y10	Z10	X11	Y11	Z11	X12	Y12	Z12	X13	Y13	Z13	X14	Y14	Z14	X15	Y15	Z15	X16	Y16	Z16	X17	Y17	Z17	X18	Y18	Z18	X19	Y19	Z19	X20	Y20	Z20	X21	Y21	Z21	X22	Y22	Z22	X23	Y23	Z23	X24	Y24	Z24	X25	Y25	Z25	X26	Y26	Z26	X27	Y27	Z27	X28	Y28	Z28	X29	Y29	Z29	X30	Y30	Z30	X31	Y31	Z31	X32	Y32	Z32	X33	Y33	Z33	X34	Y34	Z34	X35	Y35	Z35	X36	Y36	Z36	X37	Y37	Z37	X38	Y38	Z38	X39	Y39	Z39	X40	Y40	Z40	X41	Y41	Z41	X42	Y42	Z42	X43	Y43	Z43	X44	Y44	Z44	X45	Y45	Z45	X46	Y46	Z46	X47	Y47	Z47
																																																																																																																																														
175	1.74	536.00122	1673.47498	1362.48535	549.1684	1669.40515	1493.90686	407.58987	1610.50427	1376.77612	420.42575	1611.12598	1505.60974	422.4982	1457.10327	1435.93396	402.36328	1128.77747	1455.43018	535.41101	1384.83521	1430.35742	583.51044	1212.02075	1425.42297	360.2338	1285.3739	1521.54651	465.18451	1411.18787	1272.28027	447.93594	1207.06445	1207.49573	437.84378	1094.87207	1202.13257	457.52673	945.91626	1179.30933	526.25647	832.73877	1210.57581	459.89197	826.68408	1185.87756	500.83176	745.8548	1178.65381	494.58667	1417.53589	1593.23975	475.87515	1219.67102	1687.50061	500.10983	1100.31116	1700.24487	550.97113	992.21619	1712.15601	651.17328	883.36322	1667.8374	604.98346	866.37561	1712.91882	664.88733	807.44434	1708.28625	574.68256	971.37024	1341.17517	585.37109	981.38098	1557.59912	417.14395	993.04193	1375.08032	432.99814	1004.79901	1542.7981	579.74921	658.27606	1293.46179	635.72144	506.62598	1319.6571	494.17877	305.73145	1328.23962	400.5282	161.12709	1364.73022	359.83762	166.77608	1412.69214	504.7149	61.46595	1361.6886	526.65247	642.1557	1612.10876	519.58746	516.07538	1588.20764	451.6283	256.76566	1581.13171	420.56418	72.74865	1531.6427	377.2782	49.9738	1489.63672	573.3125	37.90272	1520.05981	438.33096	1708.67896	1428.69458	NaN	NaN	NaN	NaN	NaN	NaN	NaN	NaN	NaN	NaN	NaN	NaN	NaN	NaN	NaN	NaN	NaN	NaN	NaN	NaN	NaN
176	1.75	546.61139	1672.91003	1361.78687	559.82861	1669.04236	1493.26257	418.11536	1610.05701	1376.30933	431.08014	1610.85327	1505.10376	432.88663	1456.71082	1435.69946	412.22379	1128.45703	1455.54944	545.73383	1384.35583	1430.22485	593.5976	1211.43555	1425.72815	370.37094	1285.16296	1521.58813	475.58139	1410.573	1272.09314	455.95212	1206.72278	1207.37061	443.92596	1094.76208	1202.0929	460.90817	945.49225	1179.32751	527.38776	831.05469	1210.62158	461.13599	826.0799	1186.18677	500.27136	744.55261	1178.7511	504.68851	1417.35986	1592.99475	486.60843	1219.55957	1687.57593	512.22961	1100.71326	1700.75891	566.14032	994.0752	1712.10999	669.43054	888.77612	1666.95544	623.86261	870.00128	1711.93213	685.68512	813.23334	1707.11743	585.32037	971.40033	1341.84705	594.39716	980.55365	1558.2865	427.62076	992.63025	1374.80139	442.06055	1004.16565	1542.61047	592.82605	659.30432	1293.04895	650.13751	508.22498	1319.74316	517.30646	300.0668	1328.20129	431.00644	150.91003	1365.04187	389.87888	154.43262	1413.12561	540.39941	57.32526	1362.47034	533.77582	641.26459	1611.78394	525.72681	515.22955	1587.72363	454.56763	256.63226	1580.78186	421.08002	72.99958	1531.39636	377.46375	50.5022	1489.41809	573.6264	37.67607	1520.10852	448.9429	1708.25757	1428.06519	NaN	NaN	NaN	NaN	NaN	NaN	NaN	NaN	NaN	NaN	NaN	NaN	NaN	NaN	NaN	NaN	NaN	NaN	NaN	NaN	NaN
177	1.76	557.07434	1672.19153	1361.15918	570.46625	1668.52771	1492.62793	428.60422	1609.44653	1375.85742	441.6319	1610.44458	1504.57056	443.30191	1456.24158	1435.37988	422.18903	1127.97888	1455.69824	556.04108	1383.71826	1430.00757	603.63373	1210.72546	1426.05505	380.45944	1284.98474	1521.6698	486.1535	1409.8219	1271.84705	464.10385	1206.20984	1207.46741	450.1398	1094.54663	1202.09888	464.40326	944.98254	1179.31604	528.73126	829.3941	1210.64331	462.70602	825.59924	1186.10034	500.15182	743.41223	1178.84717	514.69873	1417.08862	1592.70947	497.30338	1219.37451	1687.56152	524.26678	1100.96045	1701.0636	581.01819	995.96326	1711.97083	687.28546	894.25433	1665.99902	642.20984	873.59973	1710.76929	705.94873	819.0307	1705.79248	595.44244	971.24164	1342.74255	603.42108	979.63763	1559.08875	437.59711	992.18262	1374.46558	451.19791	1003.30139	1542.39429	605.69995	660.18237	1292.48401	663.88013	509.50558	1319.82629	540.42755	294.26288	1328.17993	462.1174	140.65958	1365.43091	420.77213	142.12988	1413.40173	576.69415	53.53629	1363.13794	540.6485	640.27509	1611.09656	532.19086	514.50995	1587.61218	457.55139	256.48645	1580.33704	421.72153	73.35889	1531.2384	377.44714	51.28651	1489.34314	573.82751	37.46976	1520.19421	459.57162	1707.71436	1427.41614	NaN	NaN	NaN	NaN	NaN	NaN	NaN	NaN	NaN	NaN	NaN	NaN	NaN	NaN	NaN	NaN	NaN	NaN	NaN	NaN	NaN
178	1.77	567.70856	1671.38269	1360.51355	581.08771	1667.89966	1491.97998	439.0426	1608.75867	1375.37073	452.10968	1609.92505	1504.01685	453.83771	1455.64771	1434.94055	432.20135	1127.3689	1455.72559	566.44366	1382.99219	1429.85876	613.68652	1209.89441	1426.3877	390.65149	1284.66064	1521.64587	496.76227	1408.94141	1271.5658	472.32004	1205.70605	1207.15686	456.47067	1094.27637	1201.95178	468.15701	944.46649	1179.44116	530.51514	827.81793	1210.54321	463.76129	825.19348	1186.04565	500.23553	742.25671	1178.86536	524.85388	1416.69373	1592.40051	507.9281	1219.10083	1687.55566	536.17035	1101.13977	1701.31433	595.7442	997.84247	1711.9552	704.66626	899.72064	1664.99365	660.66492	877.5365	1709.98962	725.7677	825.09491	1704.46228	605.78003	970.97644	1343.4115	612.40228	978.59717	1559.83875	448.02109	991.54254	1374.03784	461.4888	1001.81586	1541.69641	618.1286	660.82239	1291.93518	676.98901	510.40109	1319.97302	563.49774	288.3866	1328.18237	493.9686	130.59232	1365.7428	452.44049	129.82874	1413.64026	613.43274	50.46811	1363.70227	547.76489	639.33398	1611.05725	537.91455	513.47205	1587.15027	460.4054	256.41537	1579.86108	422.01886	73.56434	1530.93494	377.47189	52.0335	1489.15259	574.04724	37.36916	1520.48962	470.13089	1706.99036	1426.71448	NaN	NaN	NaN	NaN	NaN	NaN	NaN	NaN	NaN	NaN	NaN	NaN	NaN	NaN	NaN	NaN	NaN	NaN	NaN	NaN	NaN
